# Blender 4.2.2 LTS
# www.blender.org
mtllib untitled.mtl
o Circle
v 0.000000 -0.047220 7.000000
v -1.365632 -0.047220 6.865497
v -2.678784 -0.047220 6.467156
v -3.888992 -0.047219 5.820287
v -4.949748 -0.047219 4.949748
v -5.820287 -0.047219 3.888992
v -6.467156 -0.047219 2.678784
v -6.865497 -0.047219 1.365632
v -7.000000 -0.047219 0.000000
v -6.865497 -0.047219 -1.365632
v -6.467156 -0.047219 -2.678784
v -5.820287 -0.047219 -3.888992
v -4.949748 -0.047219 -4.949748
v -3.888992 -0.047218 -5.820287
v -2.678784 -0.047218 -6.467156
v -1.365632 -0.047218 -6.865497
v 0.000000 -0.047218 -7.000000
v 1.365632 -0.047218 -6.865497
v 2.678784 -0.047218 -6.467156
v 3.888992 -0.047218 -5.820287
v 4.949748 -0.047219 -4.949748
v 5.820287 -0.047219 -3.888992
v 6.467156 -0.047219 -2.678784
v 6.865497 -0.047219 -1.365632
v 7.000000 -0.047219 0.000000
v 6.865497 -0.047219 1.365632
v 6.467156 -0.047219 2.678784
v 5.820287 -0.047219 3.888992
v 4.949748 -0.047219 4.949748
v 3.888992 -0.047219 5.820287
v 2.678784 -0.047220 6.467156
v 1.365632 -0.047220 6.865497
v 0.000000 -0.047220 7.000000
v -1.365632 -0.047220 6.865497
v -2.678784 -0.047220 6.467156
v -3.888992 -0.047219 5.820287
v -4.949748 -0.047219 4.949748
v -5.820287 -0.047219 3.888992
v -6.467156 -0.047219 2.678784
v -6.865497 -0.047219 1.365632
v -7.000000 -0.047219 0.000000
v -6.865497 -0.047219 -1.365632
v -6.467156 -0.047219 -2.678784
v -5.820287 -0.047219 -3.888992
v -4.949748 -0.047219 -4.949748
v -3.888992 -0.047218 -5.820287
v -2.678784 -0.047218 -6.467156
v -1.365632 -0.047218 -6.865497
v 0.000000 -0.047218 -7.000000
v 1.365632 -0.047218 -6.865497
v 2.678784 -0.047218 -6.467156
v 3.888992 -0.047218 -5.820287
v 4.949748 -0.047219 -4.949748
v 5.820287 -0.047219 -3.888992
v 6.467156 -0.047219 -2.678784
v 6.865497 -0.047219 -1.365632
v 7.000000 -0.047219 0.000000
v 6.865497 -0.047219 1.365632
v 6.467156 -0.047219 2.678784
v 5.820287 -0.047219 3.888992
v 4.949748 -0.047219 4.949748
v 3.888992 -0.047219 5.820287
v 2.678784 -0.047220 6.467156
v 1.365632 -0.047220 6.865497
v -0.000000 -0.475999 1.621353
v -0.316310 -0.475999 1.590199
v -0.620465 -0.475999 1.497934
v -0.900775 -0.475999 1.348105
v -1.146469 -0.475999 1.146469
v -1.348105 -0.475999 0.900775
v -1.497934 -0.475999 0.620465
v -1.590199 -0.475999 0.316310
v -1.621353 -0.475999 0.000000
v -1.590199 -0.475999 -0.316310
v -1.497934 -0.475999 -0.620465
v -1.348105 -0.475999 -0.900775
v -1.146469 -0.475999 -1.146469
v -0.900775 -0.475999 -1.348105
v -0.620465 -0.475999 -1.497934
v -0.316310 -0.475999 -1.590198
v -0.000000 -0.475999 -1.621352
v 0.316310 -0.475999 -1.590198
v 0.620465 -0.475999 -1.497934
v 0.900775 -0.475999 -1.348105
v 1.146469 -0.475999 -1.146469
v 1.348105 -0.475999 -0.900775
v 1.497934 -0.475999 -0.620465
v 1.590198 -0.475999 -0.316310
v 1.621352 -0.475999 0.000000
v 1.590198 -0.475999 0.316310
v 1.497934 -0.475999 0.620465
v 1.348105 -0.475999 0.900775
v 1.146469 -0.475999 1.146469
v 0.900775 -0.475999 1.348105
v 0.620465 -0.475999 1.497934
v 0.316310 -0.475999 1.590199
v -3.276141 -0.047219 -3.276141
v -2.008382 -0.228100 -2.008382
v -1.577976 -0.228100 -2.361608
v -2.574048 -0.047219 -3.852335
v 4.280485 -0.047219 1.773035
v 2.624078 -0.228100 1.086929
v 2.361608 -0.228100 1.577976
v 3.852335 -0.047219 2.574048
v -1.086929 -0.228100 -2.624078
v -1.773035 -0.047219 -4.280485
v -0.000000 -0.047219 4.633164
v -0.000000 -0.228101 2.840281
v -0.554111 -0.228101 2.785706
v -0.903886 -0.047219 4.544138
v 2.008382 -0.228100 2.008382
v 3.276141 -0.047219 3.276141
v -0.554111 -0.228100 -2.785706
v -0.903886 -0.047219 -4.544138
v -1.086929 -0.228100 2.624078
v -1.773035 -0.047219 4.280485
v 1.577976 -0.228100 2.361608
v 2.574048 -0.047219 3.852335
v -0.000000 -0.228100 -2.840281
v -0.000000 -0.047219 -4.633164
v -1.577976 -0.228100 2.361608
v -2.574048 -0.047219 3.852335
v 1.086929 -0.228100 2.624078
v 1.773035 -0.047219 4.280485
v 0.554111 -0.228100 -2.785706
v 0.903885 -0.047219 -4.544138
v -2.008382 -0.228100 2.008382
v -3.276141 -0.047219 3.276141
v 0.554111 -0.228101 2.785706
v 0.903885 -0.047219 4.544138
v 1.086929 -0.228100 -2.624078
v 1.773035 -0.047219 -4.280485
v -2.361608 -0.228100 1.577976
v -3.852335 -0.047219 2.574048
v 1.577976 -0.228100 -2.361608
v 2.574048 -0.047219 -3.852335
v -2.624078 -0.228100 1.086929
v -4.280485 -0.047219 1.773035
v 2.008382 -0.228100 -2.008382
v 3.276141 -0.047219 -3.276141
v -2.785706 -0.228100 0.554111
v -4.544138 -0.047219 0.903886
v 2.361608 -0.228100 -1.577976
v 3.852335 -0.047219 -2.574048
v -2.840281 -0.228100 0.000000
v -4.633164 -0.047219 0.000000
v 2.624078 -0.228100 -1.086929
v 4.280485 -0.047219 -1.773035
v -2.785706 -0.228100 -0.554111
v -4.544138 -0.047219 -0.903885
v 2.785706 -0.228100 -0.554111
v 4.544138 -0.047219 -0.903885
v -2.624078 -0.228100 -1.086929
v -4.280485 -0.047219 -1.773035
v 2.840281 -0.228100 0.000000
v 4.633164 -0.047219 0.000000
v -2.361608 -0.228100 -1.577976
v -3.852335 -0.047219 -2.574048
v 2.785706 -0.228100 0.554111
v 4.544138 -0.047219 0.903886
v 0.000000 0.000000 -7.000000
v -1.365632 0.000000 -6.865497
v -2.678784 0.000000 -6.467156
v -3.888992 0.000000 -5.820287
v -4.949748 0.000000 -4.949748
v -5.820287 0.000000 -3.888992
v -6.467156 0.000000 -2.678784
v -6.865497 0.000000 -1.365632
v -7.000000 0.000000 -0.000000
v -6.865497 0.000000 1.365632
v -6.467156 0.000000 2.678784
v -5.820287 0.000000 3.888992
v -4.949748 0.000000 4.949748
v -3.888992 0.000000 5.820287
v -2.678784 0.000000 6.467156
v -1.365632 0.000000 6.865497
v 0.000000 0.000000 7.000000
v 1.365632 0.000000 6.865497
v 2.678784 0.000000 6.467156
v 3.888992 0.000000 5.820287
v 4.949748 0.000000 4.949748
v 5.820287 0.000000 3.888992
v 6.467156 0.000000 2.678784
v 6.865497 0.000000 1.365632
v 7.000000 0.000000 -0.000000
v 6.865497 0.000000 -1.365632
v 6.467156 0.000000 -2.678784
v 5.820287 0.000000 -3.888992
v 4.949748 0.000000 -4.949748
v 3.888992 0.000000 -5.820287
v 2.678784 0.000000 -6.467156
v 1.365632 0.000000 -6.865497
v 0.000000 0.000000 -7.000000
v -1.365632 0.000000 -6.865497
v -2.678784 0.000000 -6.467156
v -3.888992 0.000000 -5.820287
v -4.949748 0.000000 -4.949748
v -5.820287 0.000000 -3.888992
v -6.467156 0.000000 -2.678784
v -6.865497 0.000000 -1.365632
v -7.000000 0.000000 -0.000000
v -6.865497 0.000000 1.365632
v -6.467156 0.000000 2.678784
v -5.820287 0.000000 3.888992
v -4.949748 0.000000 4.949748
v -3.888992 0.000000 5.820287
v -2.678784 0.000000 6.467156
v -1.365632 0.000000 6.865497
v 0.000000 0.000000 7.000000
v 1.365632 0.000000 6.865497
v 2.678784 0.000000 6.467156
v 3.888992 0.000000 5.820287
v 4.949748 0.000000 4.949748
v 5.820287 0.000000 3.888992
v 6.467156 0.000000 2.678784
v 6.865497 0.000000 1.365632
v 7.000000 0.000000 -0.000000
v 6.865497 0.000000 -1.365632
v 6.467156 0.000000 -2.678784
v 5.820287 0.000000 -3.888992
v 4.949748 0.000000 -4.949748
v 3.888992 0.000000 -5.820287
v 2.678784 0.000000 -6.467156
v 1.365632 0.000000 -6.865497
v -0.000000 0.428780 -1.621353
v -0.316310 0.428780 -1.590199
v -0.620465 0.428780 -1.497934
v -0.900775 0.428780 -1.348105
v -1.146469 0.428780 -1.146469
v -1.348105 0.428780 -0.900775
v -1.497934 0.428780 -0.620465
v -1.590199 0.428780 -0.316310
v -1.621353 0.428780 -0.000000
v -1.590199 0.428780 0.316310
v -1.497934 0.428780 0.620465
v -1.348105 0.428780 0.900775
v -1.146469 0.428780 1.146469
v -0.900775 0.428780 1.348105
v -0.620465 0.428780 1.497934
v -0.316310 0.428780 1.590198
v -0.000000 0.428780 1.621352
v 0.316310 0.428780 1.590198
v 0.620465 0.428780 1.497934
v 0.900775 0.428780 1.348105
v 1.146469 0.428780 1.146469
v 1.348105 0.428780 0.900775
v 1.497934 0.428780 0.620465
v 1.590198 0.428780 0.316310
v 1.621352 0.428780 -0.000000
v 1.590198 0.428780 -0.316310
v 1.497934 0.428780 -0.620465
v 1.348105 0.428780 -0.900775
v 1.146469 0.428780 -1.146469
v 0.900775 0.428780 -1.348105
v 0.620465 0.428780 -1.497934
v 0.316310 0.428780 -1.590199
v -3.276141 0.000000 3.276141
v -2.008382 0.180881 2.008382
v -1.577976 0.180881 2.361608
v -2.574048 0.000000 3.852335
v 4.280485 0.000000 -1.773035
v 2.624078 0.180881 -1.086929
v 2.361608 0.180881 -1.577976
v 3.852335 0.000000 -2.574048
v -1.086929 0.180881 2.624078
v -1.773035 0.000000 4.280485
v -0.000000 0.000000 -4.633164
v -0.000000 0.180881 -2.840281
v -0.554111 0.180881 -2.785706
v -0.903886 0.000000 -4.544138
v 2.008382 0.180881 -2.008382
v 3.276141 0.000000 -3.276141
v -0.554111 0.180881 2.785706
v -0.903886 0.000000 4.544138
v -1.086929 0.180881 -2.624078
v -1.773035 0.000000 -4.280485
v 1.577976 0.180881 -2.361608
v 2.574048 0.000000 -3.852335
v -0.000000 0.180881 2.840281
v -0.000000 0.000000 4.633164
v -1.577976 0.180881 -2.361608
v -2.574048 0.000000 -3.852335
v 1.086929 0.180881 -2.624078
v 1.773035 0.000000 -4.280485
v 0.554111 0.180881 2.785706
v 0.903885 0.000000 4.544138
v -2.008382 0.180881 -2.008382
v -3.276141 0.000000 -3.276141
v 0.554111 0.180881 -2.785706
v 0.903885 0.000000 -4.544138
v 1.086929 0.180881 2.624078
v 1.773035 0.000000 4.280485
v -2.361608 0.180881 -1.577976
v -3.852335 0.000000 -2.574048
v 1.577976 0.180881 2.361608
v 2.574048 0.000000 3.852335
v -2.624078 0.180881 -1.086929
v -4.280485 0.000000 -1.773035
v 2.008382 0.180881 2.008382
v 3.276141 0.000000 3.276141
v -2.785706 0.180881 -0.554111
v -4.544138 0.000000 -0.903886
v 2.361608 0.180881 1.577976
v 3.852335 0.000000 2.574048
v -2.840281 0.180881 -0.000000
v -4.633164 0.000000 -0.000000
v 2.624078 0.180881 1.086929
v 4.280485 0.000000 1.773035
v -2.785706 0.180881 0.554111
v -4.544138 0.000000 0.903885
v 2.785706 0.180881 0.554111
v 4.544138 0.000000 0.903885
v -2.624078 0.180881 1.086929
v -4.280485 0.000000 1.773035
v 2.840281 0.180881 -0.000000
v 4.633164 0.000000 -0.000000
v -2.361608 0.180881 1.577976
v -3.852335 0.000000 2.574048
v 2.785706 0.180881 -0.554111
v 4.544138 0.000000 -0.903886
vn -0.0000 -1.0000 -0.0000
vn -0.1270 -0.9798 -0.1548
vn 0.1766 -0.9798 0.0944
vn -0.0944 -0.9798 -0.1766
vn -0.0196 -0.9798 0.1993
vn 0.1548 -0.9798 0.1270
vn -0.0581 -0.9798 -0.1916
vn -0.0581 -0.9798 0.1916
vn 0.1270 -0.9798 0.1548
vn -0.0196 -0.9798 -0.1993
vn -0.0944 -0.9798 0.1766
vn 0.0944 -0.9798 0.1766
vn 0.0196 -0.9798 -0.1993
vn -0.1270 -0.9798 0.1548
vn 0.0581 -0.9798 0.1916
vn 0.0581 -0.9798 -0.1916
vn -0.1548 -0.9798 0.1270
vn 0.0196 -0.9798 0.1993
vn 0.0944 -0.9798 -0.1766
vn -0.1766 -0.9798 0.0944
vn 0.1270 -0.9798 -0.1548
vn -0.1916 -0.9798 0.0581
vn 0.1548 -0.9798 -0.1270
vn -0.1993 -0.9798 0.0196
vn 0.1766 -0.9798 -0.0944
vn -0.1993 -0.9798 -0.0196
vn 0.1916 -0.9798 -0.0581
vn -0.1916 -0.9798 -0.0581
vn 0.1993 -0.9798 -0.0196
vn -0.1766 -0.9798 -0.0944
vn 0.1993 -0.9798 0.0196
vn -0.1548 -0.9798 -0.1270
vn 0.1916 -0.9798 0.0581
vn 0.0965 -0.9949 0.0293
vn -0.0780 -0.9949 -0.0640
vn 0.1004 -0.9949 0.0099
vn -0.0890 -0.9949 -0.0475
vn 0.1004 -0.9949 -0.0099
vn -0.0965 -0.9949 -0.0293
vn 0.0965 -0.9949 -0.0293
vn -0.1004 -0.9949 -0.0099
vn 0.0890 -0.9949 -0.0475
vn -0.1004 -0.9949 0.0099
vn 0.0780 -0.9949 -0.0640
vn -0.0965 -0.9949 0.0293
vn 0.0640 -0.9949 -0.0780
vn -0.0890 -0.9949 0.0475
vn 0.0475 -0.9949 -0.0890
vn 0.0099 -0.9949 0.1004
vn -0.0780 -0.9949 0.0640
vn 0.0293 -0.9949 -0.0965
vn 0.0293 -0.9949 0.0965
vn -0.0640 -0.9949 0.0780
vn 0.0099 -0.9949 -0.1004
vn 0.0475 -0.9949 0.0890
vn -0.0475 -0.9949 0.0890
vn -0.0099 -0.9949 -0.1004
vn 0.0640 -0.9949 0.0780
vn -0.0293 -0.9949 0.0965
vn -0.0293 -0.9949 -0.0965
vn 0.0780 -0.9949 0.0640
vn -0.0099 -0.9949 0.1004
vn -0.0475 -0.9949 -0.0890
vn 0.0890 -0.9949 0.0475
vn -0.0640 -0.9949 -0.0780
vn -0.1270 0.9798 0.1548
vn 0.1766 0.9798 -0.0944
vn -0.0944 0.9798 0.1766
vn -0.0196 0.9798 -0.1993
vn 0.1548 0.9798 -0.1270
vn -0.0581 0.9798 0.1916
vn -0.0581 0.9798 -0.1916
vn 0.1270 0.9798 -0.1548
vn -0.0196 0.9798 0.1993
vn -0.0944 0.9798 -0.1766
vn 0.0944 0.9798 -0.1766
vn 0.0196 0.9798 0.1993
vn -0.1270 0.9798 -0.1548
vn 0.0581 0.9798 -0.1916
vn 0.0581 0.9798 0.1916
vn -0.1548 0.9798 -0.1270
vn 0.0196 0.9798 -0.1993
vn 0.0944 0.9798 0.1766
vn -0.1766 0.9798 -0.0944
vn 0.1270 0.9798 0.1548
vn -0.1916 0.9798 -0.0581
vn 0.1548 0.9798 0.1270
vn -0.1993 0.9798 -0.0196
vn 0.1766 0.9798 0.0944
vn -0.1993 0.9798 0.0196
vn 0.1916 0.9798 0.0581
vn -0.1916 0.9798 0.0581
vn 0.1993 0.9798 0.0196
vn -0.1766 0.9798 0.0944
vn 0.1993 0.9798 -0.0196
vn -0.1548 0.9798 0.1270
vn 0.1916 0.9798 -0.0581
vn -0.0000 1.0000 -0.0000
vn 0.0965 0.9949 -0.0293
vn -0.0780 0.9949 0.0640
vn 0.1004 0.9949 -0.0099
vn -0.0890 0.9949 0.0475
vn 0.1004 0.9949 0.0099
vn -0.0965 0.9949 0.0293
vn 0.0965 0.9949 0.0293
vn -0.1004 0.9949 0.0099
vn 0.0890 0.9949 0.0475
vn -0.1004 0.9949 -0.0099
vn 0.0780 0.9949 0.0640
vn -0.0965 0.9949 -0.0293
vn 0.0640 0.9949 0.0780
vn -0.0890 0.9949 -0.0475
vn 0.0475 0.9949 0.0890
vn 0.0099 0.9949 -0.1004
vn -0.0780 0.9949 -0.0640
vn 0.0293 0.9949 0.0965
vn 0.0293 0.9949 -0.0965
vn -0.0640 0.9949 -0.0780
vn 0.0099 0.9949 0.1004
vn 0.0475 0.9949 -0.0890
vn -0.0475 0.9949 -0.0890
vn -0.0099 0.9949 0.1004
vn 0.0640 0.9949 -0.0780
vn -0.0293 0.9949 -0.0965
vn -0.0293 0.9949 0.0965
vn 0.0780 0.9949 -0.0640
vn -0.0099 0.9949 -0.1004
vn -0.0475 0.9949 0.0890
vn 0.0890 0.9949 -0.0475
vn -0.0640 0.9949 0.0780
vt 0.000000 0.000000
s 0
f 19/1/1 51/1/1 50/1/1 18/1/1
f 6/1/1 38/1/1 37/1/1 5/1/1
f 1/1/1 33/1/1 64/1/1 32/1/1
f 20/1/1 52/1/1 51/1/1 19/1/1
f 7/1/1 39/1/1 38/1/1 6/1/1
f 21/1/1 53/1/1 52/1/1 20/1/1
f 8/1/1 40/1/1 39/1/1 7/1/1
f 22/1/1 54/1/1 53/1/1 21/1/1
f 9/1/1 41/1/1 40/1/1 8/1/1
f 23/1/1 55/1/1 54/1/1 22/1/1
f 10/1/1 42/1/1 41/1/1 9/1/1
f 24/1/1 56/1/1 55/1/1 23/1/1
f 11/1/1 43/1/1 42/1/1 10/1/1
f 25/1/1 57/1/1 56/1/1 24/1/1
f 12/1/1 44/1/1 43/1/1 11/1/1
f 26/1/1 58/1/1 57/1/1 25/1/1
f 13/1/1 45/1/1 44/1/1 12/1/1
f 27/1/1 59/1/1 58/1/1 26/1/1
f 14/1/1 46/1/1 45/1/1 13/1/1
f 28/1/1 60/1/1 59/1/1 27/1/1
f 15/1/1 47/1/1 46/1/1 14/1/1
f 2/1/1 34/1/1 33/1/1 1/1/1
f 29/1/1 61/1/1 60/1/1 28/1/1
f 16/1/1 48/1/1 47/1/1 15/1/1
f 3/1/1 35/1/1 34/1/1 2/1/1
f 30/1/1 62/1/1 61/1/1 29/1/1
f 17/1/1 49/1/1 48/1/1 16/1/1
f 4/1/1 36/1/1 35/1/1 3/1/1
f 31/1/1 63/1/1 62/1/1 30/1/1
f 18/1/1 50/1/1 49/1/1 17/1/1
f 5/1/1 37/1/1 36/1/1 4/1/1
f 32/1/1 64/1/1 63/1/1 31/1/1
f 99/1/2 78/1/2 77/1/2 98/1/2
f 103/1/3 92/1/3 91/1/3 102/1/3
f 105/1/4 79/1/4 78/1/4 99/1/4
f 109/1/5 66/1/5 65/1/5 108/1/5
f 111/1/6 93/1/6 92/1/6 103/1/6
f 113/1/7 80/1/7 79/1/7 105/1/7
f 115/1/8 67/1/8 66/1/8 109/1/8
f 117/1/9 94/1/9 93/1/9 111/1/9
f 119/1/10 81/1/10 80/1/10 113/1/10
f 121/1/11 68/1/11 67/1/11 115/1/11
f 123/1/12 95/1/12 94/1/12 117/1/12
f 125/1/13 82/1/13 81/1/13 119/1/13
f 127/1/14 69/1/14 68/1/14 121/1/14
f 129/1/15 96/1/15 95/1/15 123/1/15
f 131/1/16 83/1/16 82/1/16 125/1/16
f 133/1/17 70/1/17 69/1/17 127/1/17
f 108/1/18 65/1/18 96/1/18 129/1/18
f 135/1/19 84/1/19 83/1/19 131/1/19
f 137/1/20 71/1/20 70/1/20 133/1/20
f 139/1/21 85/1/21 84/1/21 135/1/21
f 141/1/22 72/1/22 71/1/22 137/1/22
f 143/1/23 86/1/23 85/1/23 139/1/23
f 145/1/24 73/1/24 72/1/24 141/1/24
f 147/1/25 87/1/25 86/1/25 143/1/25
f 149/1/26 74/1/26 73/1/26 145/1/26
f 151/1/27 88/1/27 87/1/27 147/1/27
f 153/1/28 75/1/28 74/1/28 149/1/28
f 155/1/29 89/1/29 88/1/29 151/1/29
f 157/1/30 76/1/30 75/1/30 153/1/30
f 159/1/31 90/1/31 89/1/31 155/1/31
f 98/1/32 77/1/32 76/1/32 157/1/32
f 102/1/33 91/1/33 90/1/33 159/1/33
f 59/1/1 101/1/1 160/1/1 58/1/1
f 101/1/34 102/1/34 159/1/34 160/1/34
f 45/1/1 97/1/1 158/1/1 44/1/1
f 97/1/35 98/1/35 157/1/35 158/1/35
f 58/1/1 160/1/1 156/1/1 57/1/1
f 160/1/36 159/1/36 155/1/36 156/1/36
f 44/1/1 158/1/1 154/1/1 43/1/1
f 158/1/37 157/1/37 153/1/37 154/1/37
f 57/1/1 156/1/1 152/1/1 56/1/1
f 156/1/38 155/1/38 151/1/38 152/1/38
f 43/1/1 154/1/1 150/1/1 42/1/1
f 154/1/39 153/1/39 149/1/39 150/1/39
f 56/1/1 152/1/1 148/1/1 55/1/1
f 152/1/40 151/1/40 147/1/40 148/1/40
f 42/1/1 150/1/1 146/1/1 41/1/1
f 150/1/41 149/1/41 145/1/41 146/1/41
f 55/1/1 148/1/1 144/1/1 54/1/1
f 148/1/42 147/1/42 143/1/42 144/1/42
f 41/1/1 146/1/1 142/1/1 40/1/1
f 146/1/43 145/1/43 141/1/43 142/1/43
f 54/1/1 144/1/1 140/1/1 53/1/1
f 144/1/44 143/1/44 139/1/44 140/1/44
f 40/1/1 142/1/1 138/1/1 39/1/1
f 142/1/45 141/1/45 137/1/45 138/1/45
f 53/1/1 140/1/1 136/1/1 52/1/1
f 140/1/46 139/1/46 135/1/46 136/1/46
f 39/1/1 138/1/1 134/1/1 38/1/1
f 138/1/47 137/1/47 133/1/47 134/1/47
f 52/1/1 136/1/1 132/1/1 51/1/1
f 136/1/48 135/1/48 131/1/48 132/1/48
f 33/1/1 107/1/1 130/1/1 64/1/1
f 107/1/49 108/1/49 129/1/49 130/1/49
f 38/1/1 134/1/1 128/1/1 37/1/1
f 134/1/50 133/1/50 127/1/50 128/1/50
f 51/1/1 132/1/1 126/1/1 50/1/1
f 132/1/51 131/1/51 125/1/51 126/1/51
f 64/1/1 130/1/1 124/1/1 63/1/1
f 130/1/52 129/1/52 123/1/52 124/1/52
f 37/1/1 128/1/1 122/1/1 36/1/1
f 128/1/53 127/1/53 121/1/53 122/1/53
f 50/1/1 126/1/1 120/1/1 49/1/1
f 126/1/54 125/1/54 119/1/54 120/1/54
f 63/1/1 124/1/1 118/1/1 62/1/1
f 124/1/55 123/1/55 117/1/55 118/1/55
f 36/1/1 122/1/1 116/1/1 35/1/1
f 122/1/56 121/1/56 115/1/56 116/1/56
f 49/1/1 120/1/1 114/1/1 48/1/1
f 120/1/57 119/1/57 113/1/57 114/1/57
f 62/1/1 118/1/1 112/1/1 61/1/1
f 118/1/58 117/1/58 111/1/58 112/1/58
f 35/1/1 116/1/1 110/1/1 34/1/1
f 116/1/59 115/1/59 109/1/59 110/1/59
f 48/1/1 114/1/1 106/1/1 47/1/1
f 114/1/60 113/1/60 105/1/60 106/1/60
f 61/1/1 112/1/1 104/1/1 60/1/1
f 112/1/61 111/1/61 103/1/61 104/1/61
f 34/1/1 110/1/1 107/1/1 33/1/1
f 110/1/62 109/1/62 108/1/62 107/1/62
f 47/1/1 106/1/1 100/1/1 46/1/1
f 106/1/63 105/1/63 99/1/63 100/1/63
f 60/1/1 104/1/1 101/1/1 59/1/1
f 104/1/64 103/1/64 102/1/64 101/1/64
f 46/1/1 100/1/1 97/1/1 45/1/1
f 100/1/65 99/1/65 98/1/65 97/1/65
f 179/1/1 211/1/1 210/1/1 178/1/1
f 166/1/1 198/1/1 197/1/1 165/1/1
f 161/1/1 193/1/1 224/1/1 192/1/1
f 180/1/1 212/1/1 211/1/1 179/1/1
f 167/1/1 199/1/1 198/1/1 166/1/1
f 181/1/1 213/1/1 212/1/1 180/1/1
f 168/1/1 200/1/1 199/1/1 167/1/1
f 182/1/1 214/1/1 213/1/1 181/1/1
f 169/1/1 201/1/1 200/1/1 168/1/1
f 183/1/1 215/1/1 214/1/1 182/1/1
f 170/1/1 202/1/1 201/1/1 169/1/1
f 184/1/1 216/1/1 215/1/1 183/1/1
f 171/1/1 203/1/1 202/1/1 170/1/1
f 185/1/1 217/1/1 216/1/1 184/1/1
f 172/1/1 204/1/1 203/1/1 171/1/1
f 186/1/1 218/1/1 217/1/1 185/1/1
f 173/1/1 205/1/1 204/1/1 172/1/1
f 187/1/1 219/1/1 218/1/1 186/1/1
f 174/1/1 206/1/1 205/1/1 173/1/1
f 188/1/1 220/1/1 219/1/1 187/1/1
f 175/1/1 207/1/1 206/1/1 174/1/1
f 162/1/1 194/1/1 193/1/1 161/1/1
f 189/1/1 221/1/1 220/1/1 188/1/1
f 176/1/1 208/1/1 207/1/1 175/1/1
f 163/1/1 195/1/1 194/1/1 162/1/1
f 190/1/1 222/1/1 221/1/1 189/1/1
f 177/1/1 209/1/1 208/1/1 176/1/1
f 164/1/1 196/1/1 195/1/1 163/1/1
f 191/1/1 223/1/1 222/1/1 190/1/1
f 178/1/1 210/1/1 209/1/1 177/1/1
f 165/1/1 197/1/1 196/1/1 164/1/1
f 192/1/1 224/1/1 223/1/1 191/1/1
f 259/1/66 238/1/66 237/1/66 258/1/66
f 263/1/67 252/1/67 251/1/67 262/1/67
f 265/1/68 239/1/68 238/1/68 259/1/68
f 269/1/69 226/1/69 225/1/69 268/1/69
f 271/1/70 253/1/70 252/1/70 263/1/70
f 273/1/71 240/1/71 239/1/71 265/1/71
f 275/1/72 227/1/72 226/1/72 269/1/72
f 277/1/73 254/1/73 253/1/73 271/1/73
f 279/1/74 241/1/74 240/1/74 273/1/74
f 281/1/75 228/1/75 227/1/75 275/1/75
f 283/1/76 255/1/76 254/1/76 277/1/76
f 285/1/77 242/1/77 241/1/77 279/1/77
f 287/1/78 229/1/78 228/1/78 281/1/78
f 289/1/79 256/1/79 255/1/79 283/1/79
f 291/1/80 243/1/80 242/1/80 285/1/80
f 293/1/81 230/1/81 229/1/81 287/1/81
f 268/1/82 225/1/82 256/1/82 289/1/82
f 295/1/83 244/1/83 243/1/83 291/1/83
f 297/1/84 231/1/84 230/1/84 293/1/84
f 299/1/85 245/1/85 244/1/85 295/1/85
f 301/1/86 232/1/86 231/1/86 297/1/86
f 303/1/87 246/1/87 245/1/87 299/1/87
f 305/1/88 233/1/88 232/1/88 301/1/88
f 307/1/89 247/1/89 246/1/89 303/1/89
f 309/1/90 234/1/90 233/1/90 305/1/90
f 311/1/91 248/1/91 247/1/91 307/1/91
f 313/1/92 235/1/92 234/1/92 309/1/92
f 315/1/93 249/1/93 248/1/93 311/1/93
f 317/1/94 236/1/94 235/1/94 313/1/94
f 319/1/95 250/1/95 249/1/95 315/1/95
f 258/1/96 237/1/96 236/1/96 317/1/96
f 262/1/97 251/1/97 250/1/97 319/1/97
f 219/1/98 261/1/98 320/1/98 218/1/98
f 261/1/99 262/1/99 319/1/99 320/1/99
f 205/1/98 257/1/98 318/1/98 204/1/98
f 257/1/100 258/1/100 317/1/100 318/1/100
f 218/1/98 320/1/98 316/1/98 217/1/98
f 320/1/101 319/1/101 315/1/101 316/1/101
f 204/1/98 318/1/98 314/1/98 203/1/98
f 318/1/102 317/1/102 313/1/102 314/1/102
f 217/1/98 316/1/98 312/1/98 216/1/98
f 316/1/103 315/1/103 311/1/103 312/1/103
f 203/1/98 314/1/98 310/1/98 202/1/98
f 314/1/104 313/1/104 309/1/104 310/1/104
f 216/1/98 312/1/98 308/1/98 215/1/98
f 312/1/105 311/1/105 307/1/105 308/1/105
f 202/1/98 310/1/98 306/1/98 201/1/98
f 310/1/106 309/1/106 305/1/106 306/1/106
f 215/1/98 308/1/98 304/1/98 214/1/98
f 308/1/107 307/1/107 303/1/107 304/1/107
f 201/1/98 306/1/98 302/1/98 200/1/98
f 306/1/108 305/1/108 301/1/108 302/1/108
f 214/1/98 304/1/98 300/1/98 213/1/98
f 304/1/109 303/1/109 299/1/109 300/1/109
f 200/1/98 302/1/98 298/1/98 199/1/98
f 302/1/110 301/1/110 297/1/110 298/1/110
f 213/1/98 300/1/98 296/1/98 212/1/98
f 300/1/111 299/1/111 295/1/111 296/1/111
f 199/1/98 298/1/98 294/1/98 198/1/98
f 298/1/112 297/1/112 293/1/112 294/1/112
f 212/1/98 296/1/98 292/1/98 211/1/98
f 296/1/113 295/1/113 291/1/113 292/1/113
f 193/1/98 267/1/98 290/1/98 224/1/98
f 267/1/114 268/1/114 289/1/114 290/1/114
f 198/1/98 294/1/98 288/1/98 197/1/98
f 294/1/115 293/1/115 287/1/115 288/1/115
f 211/1/98 292/1/98 286/1/98 210/1/98
f 292/1/116 291/1/116 285/1/116 286/1/116
f 224/1/98 290/1/98 284/1/98 223/1/98
f 290/1/117 289/1/117 283/1/117 284/1/117
f 197/1/98 288/1/98 282/1/98 196/1/98
f 288/1/118 287/1/118 281/1/118 282/1/118
f 210/1/98 286/1/98 280/1/98 209/1/98
f 286/1/119 285/1/119 279/1/119 280/1/119
f 223/1/98 284/1/98 278/1/98 222/1/98
f 284/1/120 283/1/120 277/1/120 278/1/120
f 196/1/98 282/1/98 276/1/98 195/1/98
f 282/1/121 281/1/121 275/1/121 276/1/121
f 209/1/98 280/1/98 274/1/98 208/1/98
f 280/1/122 279/1/122 273/1/122 274/1/122
f 222/1/98 278/1/98 272/1/98 221/1/98
f 278/1/123 277/1/123 271/1/123 272/1/123
f 195/1/98 276/1/98 270/1/98 194/1/98
f 276/1/124 275/1/124 269/1/124 270/1/124
f 208/1/98 274/1/98 266/1/98 207/1/98
f 274/1/125 273/1/125 265/1/125 266/1/125
f 221/1/98 272/1/98 264/1/98 220/1/98
f 272/1/126 271/1/126 263/1/126 264/1/126
f 194/1/98 270/1/98 267/1/98 193/1/98
f 270/1/127 269/1/127 268/1/127 267/1/127
f 207/1/98 266/1/98 260/1/98 206/1/98
f 266/1/128 265/1/128 259/1/128 260/1/128
f 220/1/98 264/1/98 261/1/98 219/1/98
f 264/1/129 263/1/129 262/1/129 261/1/129
f 206/1/98 260/1/98 257/1/98 205/1/98
f 260/1/130 259/1/130 258/1/130 257/1/130
